<?xml version="1.0" standalone="no"?>
<!DOCTYPE svg PUBLIC "-//W3C//DTD SVG 20010904//EN"
 "http://www.w3.org/TR/2001/REC-SVG-20010904/DTD/svg10.dtd">
<svg version="1.0" xmlns="http://www.w3.org/2000/svg"
 width="1000.000000pt" height="1000.000000pt" viewBox="0 0 1000.000000 1000.000000"
 preserveAspectRatio="xMidYMid meet">
<metadata>
Created by potrace 1.14, written by Peter Selinger 2001-2017
</metadata>
<g transform="translate(0.000000,1000.000000) scale(0.100000,-0.100000)"
fill="#000000" stroke="none">
<path d="M1885 9824 c-55 -28 -211 -152 -297 -236 -245 -239 -426 -548 -508
-865 -9 -37 -17 -46 -61 -67 -352 -177 -629 -536 -694 -901 -12 -68 -14 -390
-12 -2175 1 -1152 6 -2106 10 -2120 3 -14 12 -50 18 -80 21 -106 71 -231 135
-337 25 -40 60 -111 78 -156 34 -84 89 -185 135 -247 64 -87 211 -231 270
-264 9 -5 18 -12 21 -16 10 -12 126 -78 200 -113 123 -57 304 -107 440 -121
25 -2 255 -5 512 -5 l467 -1 -14 -33 c-23 -56 -54 -189 -61 -267 -23 -250 31
-465 177 -700 15 -25 39 -75 53 -112 69 -186 213 -373 396 -517 214 -168 539
-295 820 -319 335 -29 646 29 926 173 311 159 534 400 643 695 65 175 80 396
41 578 -27 120 -95 282 -160 378 -28 42 -56 112 -48 120 4 3 107 -36 253 -97
53 -22 178 -62 305 -99 228 -66 288 -75 480 -75 133 1 151 3 225 29 100 36
133 54 200 107 55 44 124 140 144 199 9 28 20 39 58 55 133 54 287 160 408
280 196 196 317 419 358 660 10 61 13 219 13 673 -1 325 2 592 7 592 4 0 25
-11 46 -24 85 -54 269 -125 366 -141 22 -3 63 -10 90 -15 74 -13 309 -5 395
14 431 94 769 396 908 811 47 142 62 244 57 415 -5 212 -61 406 -167 581 -15
25 -43 85 -63 133 -71 176 -147 291 -284 426 -191 189 -415 302 -675 340 -86
13 -241 15 -321 5 -72 -9 -241 -51 -275 -69 -17 -8 -42 -17 -57 -20 l-28 -6 1
223 c1 277 -7 353 -58 496 -32 93 -78 187 -115 238 -13 17 -23 35 -23 39 0 15
-86 202 -114 249 -118 196 -295 369 -501 490 -144 85 -344 154 -495 171 -36 4
-389 8 -785 9 l-720 1 -400 133 c-220 73 -407 135 -415 138 -124 45 -340 119
-390 133 -54 16 -1825 607 -1870 624 -8 3 -28 -1 -45 -10z"/>
</g>
</svg>
